<?xml version="1.0" encoding="UTF-8"?>
<svg id="Layer_1_copy" data-name="Layer 1 copy" xmlns="http://www.w3.org/2000/svg" viewBox="0 0 506 506">
  <defs>
    <style>
      .cls-1 {
        fill: #fff;
      }

      .cls-2 {
        fill: #359850;
      }

      .cls-3 {
        fill: #cf7b33;
      }

      .cls-4 {
        fill: #f1cd3c;
      }

      .cls-5 {
        fill: #2778b1;
      }
    </style>
  </defs>
  <g id="Layer_5_copy" data-name="Layer 5 copy">
    <path class="cls-4" d="M415.49,310.18h-45.06c-4.04,0-7.86-1.81-10.41-4.92l-15.24-18.61c-2.45-2.99-6.08-4.78-9.96-4.91l-93.83-3.15c-7.41-.25-13.21-6.42-12.96-13.79h0c.25-7.37,6.46-13.14,13.87-12.89l106.04,3.55c3.88,.13,7.51,1.92,9.96,4.91l14.89,18.19c2.55,3.11,6.37,4.92,10.41,4.92h9.34c1.96,0,3.9-.43,5.68-1.25l46.79-41.7c6.72-3.12,14.7-.23,17.84,6.45h0c3.13,6.68-23.85,45.78-30.57,48.9l-11.1,13.04c-1.78,.82-3.71,1.25-5.68,1.25Z"/>
  </g>
  <g id="Layer_4_copy" data-name="Layer 4 copy">
    <path class="cls-2" d="M170.38,376.94h0s188.9-145.23,188.9-145.23l-58.08-38.24,63.74-89.24,41.67,80.49-29.53,21.36,34.6,35.55-222.27,135.62c-5.8,3.83-13.37,3.71-19.04-.3Z"/>
  </g>
  <g id="Layer_2_copy" data-name="Layer 2 copy">
    <path class="cls-5" d="M99.5,330.72h0c-2.46-3-1.88-7.45,1.27-9.73l97.94-70.97c3-2.17,3.69-6.33,1.56-9.35l-37.82-53.46c-2.12-3-1.45-7.14,1.52-9.32l101.84-97.75c3.41-2.5,88.18,5.13,90.05,8.91l.71,1.44c1.37,2.77,.68,6.11-1.67,8.12l-162.75,89.43c-2.97,2.53-3.18,7.04-.46,9.83l39.86,40.88c2.93,3.01,2.44,7.91-1.04,10.28l-121.91,82.99c-2.92,1.99-6.88,1.42-9.11-1.31Z"/>
  </g>
  <g id="Layer_3_copy" data-name="Layer 3 copy">
    <path class="cls-3" d="M180.35,438.9L63.37,285.44c-2.66-3.48,14.66-48.2,18.91-49.34l3.2-.86c2.33-.62,4.81,.15,6.36,1.99l91.19,166.09c2.06,2.44,5.65,2.92,8.28,1.1l138.33-95.43c2.97-2.05,3.55-6.19,1.26-8.97L112.81,124.05c-1.62-1.97,30.74-53.81,32.01-56.02h0c2.09-3.66,7.18-4.21,10-1.07l214.24,237.74c2.47,2.74,1.99,7.01-1.03,9.14l-179.17,126.37c-2.73,1.93-6.5,1.35-8.52-1.3Z"/>
  </g>
  <path class="cls-1" d="M387.33,155.92l-35.41,199.72h-55.24l19.55-110.49-57.51,110.49h-46.46l-18.13-111.05-19.55,111.05h-55.81l35.41-199.72h67.14l27.48,129.47,71.67-129.47h66.86Z"/>
</svg>